<svg xmlns="http://www.w3.org/2000/svg" viewBox="0 0 512 512">
  <rect width="512" height="512" rx="112" fill="#12312c"/>
  <path d="M86 180h58v116H86z" fill="#f7f5ef"/>
  <path d="M162 132h70v164h-70z" fill="#f0bf5a"/>
  <path d="M252 204h56v92h-56z" fill="#d56545"/>
  <path d="M328 156h98v140h-98z" fill="#f7f5ef"/>
  <path d="M106 204h16v18h-16zm0 43h16v18h-16zm77-40h17v20h-17zm0 49h17v20h-17zm160-65h18v22h-18zm31 0h18v22h-18zm-31 49h18v22h-18zm31 0h18v22h-18z" fill="#12312c" opacity=".74"/>
  <path d="M72 296h368" stroke="#1f6f5b" stroke-width="30" stroke-linecap="round"/>
  <path d="M178 266c13-38 43-61 78-61s65 23 78 61" fill="none" stroke="#f0bf5a" stroke-width="32" stroke-linecap="round"/>
  <path d="M145 250h84c46 0 83 37 83 83v6c0 46-37 83-83 83h-84c-46 0-83-37-83-83v-6c0-46 37-83 83-83z" fill="#f7f5ef"/>
  <path d="M283 250h84c46 0 83 37 83 83v6c0 46-37 83-83 83h-84c-46 0-83-37-83-83v-6c0-46 37-83 83-83z" fill="#f7f5ef"/>
  <circle cx="187" cy="336" r="56" fill="#12312c"/>
  <circle cx="325" cy="336" r="56" fill="#12312c"/>
  <circle cx="168" cy="315" r="14" fill="#fff" opacity=".35"/>
  <circle cx="306" cy="315" r="14" fill="#fff" opacity=".35"/>
  <path d="M232 327c15-18 33-18 48 0" fill="none" stroke="#f0bf5a" stroke-width="24" stroke-linecap="round"/>
  <path d="M136 420h240" stroke="#d56545" stroke-width="26" stroke-linecap="round"/>
</svg>
