<svg xmlns="http://www.w3.org/2000/svg" viewBox="0 0 512 512">
  <rect width="512" height="512" rx="108" fill="#12312c"/>
  <circle cx="383" cy="111" r="44" fill="#f0bf5a"/>
  <path d="M76 315h360v75H76z" fill="#0b211e"/>
  <path d="M99 181h55v134H99z" fill="#f7f5ef"/>
  <path d="M171 137h64v178h-64z" fill="#f0bf5a"/>
  <path d="M251 202h58v113h-58z" fill="#d56545"/>
  <path d="M324 159h72v156h-72z" fill="#f7f5ef"/>
  <path d="M116 207h14v20h-14zm0 44h14v20h-14zm73-42h15v21h-15zm0 48h15v21h-15zm84-28h14v20h-14zm68-39h15v22h-15zm25 0h15v22h-15zm-25 49h15v22h-15zm25 0h15v22h-15z" fill="#12312c" opacity=".78"/>
  <path d="M86 322c45-37 93-56 145-56 64 0 103 33 151 33 18 0 34-5 48-14v102H86z" fill="#1f6f5b"/>
  <path d="M163 260c9-31 38-54 72-54h42c34 0 63 23 72 54" fill="none" stroke="#f0bf5a" stroke-width="30" stroke-linecap="round"/>
  <path d="M158 248h74c34 0 62 28 62 62v32c0 34-28 62-62 62h-74c-34 0-62-28-62-62v-32c0-34 28-62 62-62z" fill="#f7f5ef"/>
  <path d="M280 248h74c34 0 62 28 62 62v32c0 34-28 62-62 62h-74c-34 0-62-28-62-62v-32c0-34 28-62 62-62z" fill="#f7f5ef"/>
  <circle cx="195" cy="326" r="47" fill="#12312c"/>
  <circle cx="317" cy="326" r="47" fill="#12312c"/>
  <circle cx="180" cy="309" r="12" fill="#ffffff" opacity=".38"/>
  <circle cx="302" cy="309" r="12" fill="#ffffff" opacity=".38"/>
  <path d="M232 315c14-17 34-17 48 0" fill="none" stroke="#f0bf5a" stroke-width="22" stroke-linecap="round"/>
  <path d="M132 392h248" stroke="#d56545" stroke-width="26" stroke-linecap="round"/>
</svg>
