<svg xmlns="http://www.w3.org/2000/svg" viewBox="0 0 512 512">
  <rect width="512" height="512" rx="108" fill="#12312c"/>
  <circle cx="356" cy="142" r="50" fill="#f0bf5a"/>
  <path d="M147 352c31 31 72 45 118 45 70 0 116-35 116-88 0-48-35-71-103-84-45-9-61-18-61-38 0-21 22-35 57-35 30 0 58 9 85 28l23-55c-29-24-68-37-111-37-69 0-114 36-114 91 0 48 36 73 105 86 43 8 58 17 58 37 0 22-22 36-59 36-35 0-66-12-92-37z" fill="#fff"/>
  <path d="M96 407h320" stroke="#d56545" stroke-width="28" stroke-linecap="round"/>
</svg>
